# xmcd CD database file
#
# Track frame offsets:
#	150
#	20581
#	43882
#	73570
#	96099
#	114155
#	138332
#	158930
#	181679
#
# Disc length: 2825 seconds
#
# Revision: 0
# Processed by: cddbd v1.5.2PL0 Copyright (c) Steve Scherf et al.
# Submitted via: CDex 1.51
#
DISCID=700b0709
DTITLE=Marshall Styler - Seven Falls
DYEAR=2009
DGENRE=New Age
TTITLE0=Flight Of The Great Blue (South Padre Island)
TTITLE1=All I Had To Hear You Say
TTITLE2=Camden To Monhegan
TTITLE3=Welcome Back To Dreamland
TTITLE4=Mandala (Mary's Waltz)
TTITLE5=Seven Falls
TTITLE6=The Locket
TTITLE7=One Day In One Heart
TTITLE8=Adirondack
EXTD=YEAR: 2009
EXTT0=
EXTT1=
EXTT2=
EXTT3=
EXTT4=
EXTT5=
EXTT6=
EXTT7=
EXTT8=
PLAYORDER=
